<?xml version="1.0" encoding="iso-8859-1"?>
<!-- Generator: Adobe Illustrator 21.0.0, SVG Export Plug-In . SVG Version: 6.00 Build 0)  -->
<svg fill="" xmlns="http://www.w3.org/2000/svg" xmlns:xlink="http://www.w3.org/1999/xlink" version="1.1" id="Capa_1" x="0px" y="0px" viewBox="0 0 512 512" style="enable-background:new 0 0 512 512;" xml:space="preserve" width="512" height="512">
<g>
	<path d="M451,0H61v140h390V0z M316,85c-8.284,0-15-6.716-15-15c0-8.284,6.716-15,15-15s15,6.716,15,15   C331,78.284,324.284,85,316,85z M376,85c-8.284,0-15-6.716-15-15c0-8.284,6.716-15,15-15s15,6.716,15,15   C391,78.284,384.284,85,376,85z"/>
	<rect x="361" y="170" width="90" height="282"/>
	<rect x="61" y="170" width="90" height="282"/>
	<rect y="482" width="512" height="30"/>
</g>















</svg>
